<svg width="21" height="21" viewBox="0 0 21 21" fill="none" xmlns="http://www.w3.org/2000/svg"
     xmlns:xlink="http://www.w3.org/1999/xlink">
  <path
    d="M10 1.99L3 1.99C2.46 1.99 1.96 2.2 1.58 2.58C1.21 2.95 1 3.46 1 3.99L1 17.99C1 18.52 1.21 19.03 1.58 19.41C1.96 19.78 2.46 19.99 3 19.99L17 19.99C17.53 19.99 18.03 19.78 18.41 19.41C18.78 19.03 19 18.52 19 17.99L19 10.99M17.87 1C18.43 1 18.97 1.22 19.37 1.62C19.77 2.01 19.99 2.55 19.99 3.12C19.99 3.68 19.77 4.22 19.37 4.62L10.36 13.63C10.12 13.87 9.83 14.04 9.5 14.14L6.63 14.98C6.54 15 6.45 15 6.37 14.98C6.28 14.96 6.2 14.91 6.14 14.85C6.07 14.79 6.03 14.71 6.01 14.62C5.98 14.53 5.99 14.44 6.01 14.36L6.85 11.48C6.95 11.16 7.12 10.87 7.36 10.63L16.37 1.62C16.77 1.22 17.31 1 17.87 1Z"
    stroke="currentColor" stroke-width="2" stroke-linejoin="round" />
</svg>
