<svg width="20" height="20" viewBox="0 0 20 20" fill="none" xmlns="http://www.w3.org/2000/svg"
     xmlns:xlink="http://www.w3.org/1999/xlink">
  <path
    d="M5 2C5 1.46 5.21 0.96 5.58 0.58C5.96 0.21 6.46 0 7 0L13 0C13.53 0 14.03 0.21 14.41 0.58C14.78 0.96 15 1.46 15 2L15 4L19 4C19.26 4 19.51 4.1 19.7 4.29C19.89 4.48 20 4.73 20 5C20 5.26 19.89 5.51 19.7 5.7C19.51 5.89 19.26 6 19 6L17.93 6L17.06 18.14C17.02 18.64 16.8 19.11 16.43 19.46C16.06 19.8 15.57 20 15.06 20L4.93 20C4.42 20 3.93 19.8 3.56 19.46C3.19 19.11 2.97 18.64 2.93 18.14L2.06 6L1 6C0.73 6 0.48 5.89 0.29 5.7C0.1 5.51 0 5.26 0 5C0 4.73 0.1 4.48 0.29 4.29C0.48 4.1 0.73 4 1 4L5 4L5 2ZM7 4L13 4L13 2L7 2L7 4ZM4.07 6L4.93 18L15.06 18L15.92 6L4.07 6ZM8 8C8.26 8 8.51 8.1 8.7 8.29C8.89 8.48 9 8.73 9 9L9 15C9 15.26 8.89 15.51 8.7 15.7C8.51 15.89 8.26 16 8 16C7.73 16 7.48 15.89 7.29 15.7C7.1 15.51 7 15.26 7 15L7 9C7 8.73 7.1 8.48 7.29 8.29C7.48 8.1 7.73 8 8 8ZM12 8C12.26 8 12.51 8.1 12.7 8.29C12.89 8.48 13 8.73 13 9L13 15C13 15.26 12.89 15.51 12.7 15.7C12.51 15.89 12.26 16 12 16C11.73 16 11.48 15.89 11.29 15.7C11.1 15.51 11 15.26 11 15L11 9C11 8.73 11.1 8.48 11.29 8.29C11.48 8.1 11.73 8 12 8Z"
    fill="currentColor" fill-rule="nonzero" />
</svg>
